<svg width="260" height="100" viewBox="0 0 260 100" fill="none" xmlns="http://www.w3.org/2000/svg">
<path d="M156.641 98.0234L151.185 98.172L147.938 92.9346L153.714 92.026L156.641 98.0234Z" fill="#FF3D48" fill-opacity="0.8"/>
<path d="M259.086 73.0703L253.63 73.2188L250.384 67.9815L256.159 67.0729L259.086 73.0703Z" fill="#FFDA26"/>
<path d="M1.71264 11.9521L0.754223 14.2258C2.06959 14.0667 2.78133 14.3495 3.354 15.1069C3.92668 15.8643 3.27047 17.9516 4.79873 19.8391C7.507 23.1541 10.3032 20.6797 11.3619 19.9595C13.5059 18.5009 15.8038 17.4342 17.1457 17.658C20.3357 18.1901 20.8696 19.5003 21.4788 21.2109C21.9826 22.6253 21.3309 25.0788 21.0691 25.8912C20.8072 26.7035 19.5914 29.3124 21.5652 31.4591C23.539 33.6058 26.1685 30.5458 27.3461 29.8352C28.5237 29.1247 30.1159 28.3133 31.6157 27.9876C33.4245 27.5947 37.0544 29.19 38.0848 30.2608C37.9862 29.6824 37.7444 28.1954 37.5666 26.8741C34.9142 25.0732 32.1138 25.7927 29.9924 26.8274C28.1304 27.7356 26.7693 30.3597 24.3723 29.5494C21.9754 28.739 22.4576 26.2974 22.4705 25.4849C22.4833 24.6724 23.1462 20.9638 22.2643 18.5829C21.5577 16.6756 20.2552 15.3296 18.1046 14.9105C16.4611 14.5902 14.4264 15.0611 12.5037 16.0417C10.581 17.0223 8.33862 19.5897 7.48709 19.782C6.63557 19.9743 6.00476 19.8784 5.73461 18.6062C5.30234 16.5706 6.53205 15.2039 5.28755 13.0921C4.58259 11.8958 2.74432 11.7761 1.71264 11.9521Z" fill="#8E4AFF"/>
<path d="M201.347 77.7296L204.901 86.0938C203.34 80.4787 207.167 75.4188 209.276 73.5907C208.795 73.1213 207.395 71.6766 205.642 69.6529C202.942 70.6938 201.654 75.471 201.347 77.7296Z" fill="url(#paint0_linear_1533_51629)"/>
<path d="M14.9549 95.41L11.0197 87.2184C14.2064 92.0978 20.5332 92.5648 23.2983 92.1884C23.3335 92.8592 23.4944 94.8642 23.8565 97.5173C21.2917 98.8581 16.8535 96.6711 14.9549 95.41Z" fill="#FF84AE"/>
<path d="M191.334 39.5054L189.953 37.3621C191.32 37.2895 191.994 36.8747 192.442 36.0017C192.889 35.1287 191.849 33.1214 193.068 30.9277C195.233 27.0708 198.521 29.0905 199.727 29.6347C202.169 30.7369 204.698 31.4129 206.024 30.9458C209.176 29.8353 209.485 28.4066 209.8 26.557C210.061 25.0276 208.96 22.6466 208.549 21.8665C208.137 21.0864 206.435 18.6479 208.061 16.111C209.687 13.5742 212.909 16.2197 214.234 16.7329C215.559 17.246 217.324 17.7879 218.909 17.852C220.82 17.9293 224.23 15.6582 225.088 14.3847C225.091 14.9909 225.11 16.5475 225.164 17.924C222.786 20.23 219.807 19.9971 217.464 19.3223C215.407 18.73 213.553 16.3019 211.258 17.5541C208.963 18.8063 209.889 21.2054 210.047 22.03C210.205 22.8547 211.541 26.5111 211.068 29.0916C210.689 31.1588 209.604 32.761 207.49 33.5712C205.874 34.1903 203.719 34.0738 201.587 33.4187C199.456 32.7635 196.716 30.5503 195.815 30.5064C194.914 30.4626 194.289 30.6727 194.241 32.0157C194.164 34.1646 195.659 35.3363 194.769 37.7076C194.265 39.0509 192.415 39.5006 191.334 39.5054Z" fill="#20E5B6"/>
<defs>
<linearGradient id="paint0_linear_1533_51629" x1="206.928" y1="71.9964" x2="202.808" y2="81.9303" gradientUnits="userSpaceOnUse">
<stop stop-color="#FF958E"/>
<stop offset="1" stop-color="#FFA132"/>
</linearGradient>
</defs>
</svg>
